<svg xmlns="http://www.w3.org/2000/svg" viewBox="0 0 193 126">
  <defs>
    <style>
      .prefix__cls-1 {
        fill: #19e5a8
      }

      .prefix__cls-2 {
        fill: none
      }
    </style>
  </defs>
  <g id="prefix__Layer_1-2" data-name="Layer 1">
    <path class="prefix__cls-1"
      d="M65.87 63.82a43.72 43.72 0 004.73 6.57V38.88C64.6 30.8 59.4 27 55.35 25.3A39.9 39.9 0 0168.48 23H16.24v80H70.6V92.86c-3.91-2.32-7.8-6.22-11.43-12.32-15-25.26-26.35-24.67-29.9-23.65a39.61 39.61 0 016.66-16.75c3.71-.99 15-1.3 29.94 23.68zM50.14 98.33A40.29 40.29 0 0131.66 77.7c4.99 2.86 11.34 8.79 18.48 20.63zM104.91 45.86a40.28 40.28 0 00-25.67-21.45 61 61 0 017.05 11.73c6.15 12.8 13.45 12.43 18.62 9.72z" />
    <path class="prefix__cls-1"
      d="M108.64 59.45c-8.72 4.2-21.73 5.85-32.4-12.05-8.41-14.11-15.62-19.91-20.89-22.1a39.93 39.93 0 00-19.42 14.84c3.71-1 15-1.3 29.94 23.68 15.94 26.64 36.94 11.18 42.27 6.62a40.28 40.28 0 00.67-7.66c-.01-1.12-.07-2.23-.17-3.33z" />
    <path class="prefix__cls-1"
      d="M59.17 80.54c-15-25.26-26.35-24.67-29.9-23.65a39.71 39.71 0 002.39 20.81c5 2.86 11.3 8.79 18.48 20.63a40 40 0 0049.79-10.1c-6.82 5.42-25.93 17.16-40.76-7.69z" />
    <path class="prefix__cls-2" d="M0 0h193v126H0z" />
    <path class="prefix__cls-2"
      d="M50.14 98.33A40.29 40.29 0 0131.66 77.7c4.99 2.86 11.34 8.79 18.48 20.63zM70.6 23.05v15.83C64.6 30.8 59.4 27 55.35 25.3A39.9 39.9 0 0168.48 23h.22c.64 0 1.3 0 1.9.05zM108.64 59.45c-8.72 4.2-21.73 5.85-32.4-12.05a97.71 97.71 0 00-5.64-8.52V23.05a40.26 40.26 0 018.64 1.36 61 61 0 017.05 11.73c6.15 12.8 13.45 12.43 18.62 9.72a39.8 39.8 0 013.73 13.59zM70.6 70.39v22.47c-3.91-2.32-7.8-6.22-11.43-12.32-15-25.26-26.35-24.67-29.9-23.65a39.61 39.61 0 016.66-16.75c3.71-1 15-1.3 29.94 23.68a43.72 43.72 0 004.73 6.57zM108.14 70.44a39.93 39.93 0 01-8.21 17.79C94.78 92.32 82.62 100 70.6 92.86V70.39c15.1 17.2 32.72 4.21 37.54.05z" />
    <path class="prefix__cls-1" d="M114.25 23H141v59.09h35.79V103h-62.54z" />
  </g>
</svg>